<svg width="200" height="150" viewBox="0 0 200 150" fill="none" xmlns="http://www.w3.org/2000/svg">
<path d="M48.8143 38.7282H17.5179C16.1548 38.7282 15.0371 37.6105 15.0371 36.2475C15.0371 34.8842 16.1548 33.7665 17.5179 33.7665H48.8143C50.1775 33.7665 51.295 34.8842 51.295 36.2475C51.3223 37.6105 50.2048 38.7282 48.8143 38.7282Z" fill="#F2F2F2"/>
<path d="M10.839 131.909C6.58615 131.909 4.21438 119.559 2.6332 115.661C1.65179 113.235 6.42258 112.907 6.20448 112.253C5.00498 108.818 3.9963 105.383 3.6964 102.875C3.342 99.8493 8.98518 105.874 8.93065 102.875C8.87613 98.7315 9.23053 94.9693 10.3483 92.5703C11.9022 94.1788 12.8563 98.5132 13.4288 103.475C13.6469 105.41 17.7907 102.221 17.927 104.211C18.0633 106.337 16.6184 109.636 16.6184 111.463C16.6184 113.289 21.2257 110.808 21.1439 112.09C21.0348 114.025 17.8997 130.109 15.1463 131.145C12.3929 132.181 10.839 131.909 10.839 131.909Z" fill="#A8BBDE"/>
<path d="M68.0343 36.8745C72.287 36.8745 72.6143 27.7145 72.6143 27.7145C69.6973 28.0962 67.0803 30.9315 67.0803 30.9315C67.0803 30.9315 71.742 25.3972 67.8708 17.0825C63.427 21.6625 64.5993 28.8595 64.5993 28.8595C63.5088 25.3427 61.1643 22.9983 61.1643 22.9983C58.4383 28.2052 62.7183 34.5572 62.7183 34.5572C62.7183 34.5572 60.619 33.8485 59.3105 33.4395C60.1558 37.1742 62.7183 36.8472 62.7183 36.8472L68.0343 36.8745Z" fill="#A8BBDE"/>
<path opacity="0.18" d="M131.008 104.047C131.008 104.047 119.422 105.928 118.632 109.69C117.977 112.744 165.603 111.49 167.566 110.726C170.074 109.745 171.819 107.482 172.173 104.811L131.008 104.047Z" fill="#001C59"/>
<path d="M85.3439 111.872H67.9512V141.396H85.3439V111.872Z" fill="#F2F2F2"/>
<path d="M186.677 6.75049H88.181C86.2727 6.75049 84.7188 8.30439 84.7188 10.2127V34.2847C84.7188 36.193 86.2727 37.747 88.181 37.747H186.677C188.586 37.747 190.14 36.193 190.14 34.2847V10.2127C190.14 8.30439 188.586 6.75049 186.677 6.75049Z" fill="#A8BBDE"/>
<path opacity="0.16" d="M159.536 50.5153L141.684 47.8713L135.949 86.5963L153.801 89.2403L159.536 50.5153Z" fill="#3913B8"/>
<path d="M169.694 106.583H130.819C129.374 106.583 128.229 105.411 128.229 103.993V74.4685C128.229 73.0238 129.401 71.8788 130.819 71.8788H169.694C171.138 71.8788 172.283 73.051 172.283 74.4685V103.966C172.283 105.411 171.138 106.583 169.694 106.583Z" fill="#3913B8"/>
<path opacity="0.72" d="M175.169 60.942L160.208 50.85L138.316 83.3035L153.278 93.3955L175.169 60.942Z" fill="#A8BBDE"/>
<path d="M148.671 52.7233L130.756 54.8925L135.462 93.7545L153.377 91.5853L148.671 52.7233Z" fill="#A8BBDE"/>
<path opacity="0.18" d="M153.39 91.589L135.451 93.77L132.971 73.2417L151.127 72.9692L153.39 91.589Z" fill="#001C59"/>
<path d="M156.853 92.4883L156.716 92.461L139.051 88.1538L139.078 88.0175L148.374 49.851L148.511 49.8783L166.176 54.1858L166.149 54.322L156.853 92.4883ZM139.378 87.9628L156.662 92.1613L165.849 54.3765L148.565 50.1783L139.378 87.9628Z" fill="#00376E"/>
<path d="M152.055 76.9495C151.592 76.9495 151.128 76.895 150.665 76.7857C147.503 76.0225 145.567 72.833 146.33 69.6705C146.712 68.144 147.639 66.8352 149.002 66.0175C150.338 65.1997 151.946 64.9542 153.473 65.336C156.635 66.0992 158.571 69.289 157.807 72.4512C157.126 75.123 154.727 76.9495 152.055 76.9495ZM152.055 65.4177C151.047 65.4177 150.038 65.6902 149.138 66.2355C147.857 67.0262 146.957 68.253 146.603 69.725C146.249 71.1972 146.494 72.6965 147.257 73.978C148.048 75.2592 149.275 76.1587 150.719 76.5132C153.745 77.2492 156.772 75.3955 157.508 72.3695C157.862 70.8972 157.617 69.398 156.853 68.1167C156.063 66.8352 154.836 65.9357 153.391 65.5812C152.955 65.4722 152.491 65.4177 152.055 65.4177Z" fill="#00376E"/>
<path d="M142.486 88.8625L142.214 88.808L142.568 87.336C141.777 87.0632 141.287 86.2727 141.423 85.4277L139.787 85.0187L139.842 84.746L141.723 85.2095L141.696 85.3457C141.614 85.7275 141.668 86.1092 141.859 86.4362C142.05 86.7635 142.377 87.0087 142.759 87.0905L142.895 87.1177L142.486 88.8625Z" fill="#00376E"/>
<path d="M165.359 57.5933L163.641 57.1845L163.668 57.048C163.859 56.2848 163.369 55.4943 162.605 55.3033L162.469 55.276L162.932 53.395L163.205 53.4495L162.796 55.0853C163.587 55.3578 164.077 56.1485 163.941 56.9935L165.413 57.348L165.359 57.5933Z" fill="#00376E"/>
<path d="M149.41 53.6952L147.529 53.2317L147.584 52.9592L149.22 53.368C149.356 52.9865 149.601 52.6592 149.956 52.4412C150.31 52.223 150.719 52.1412 151.128 52.223L151.482 50.751L151.755 50.8055L151.346 52.523L151.21 52.4957C150.828 52.414 150.446 52.4685 150.119 52.6592C149.792 52.85 149.547 53.1772 149.465 53.559L149.41 53.6952Z" fill="#00376E"/>
<path d="M153.882 91.725L153.609 91.6705L154.073 89.7895L154.209 89.8167C154.591 89.8985 154.972 89.844 155.299 89.6533C155.627 89.4623 155.872 89.1353 155.954 88.7535L155.981 88.6172L157.699 89.026L157.644 89.2988L156.172 88.9443C155.899 89.735 155.109 90.2255 154.264 90.0892L153.882 91.725Z" fill="#00376E"/>
<path d="M166.803 109.5H127.928C126.483 109.5 125.338 108.327 125.338 106.91V77.4125C125.338 75.9678 126.51 74.8228 127.928 74.8228H166.803C168.248 74.8228 169.393 75.995 169.393 77.4125V106.91C169.393 108.355 168.22 109.5 166.803 109.5Z" fill="#E9E1FF"/>
<path opacity="0.18" d="M175.827 94.8603C175.827 96.0053 174.9 96.9323 173.782 96.9323H154.181C153.036 96.9323 152.109 96.0053 152.109 94.8603V87.854C152.109 87.854 152.491 94.7785 155.19 94.9148C160.888 95.1875 175.827 94.8603 175.827 94.8603Z" fill="#001C59"/>
<path opacity="0.18" d="M169.393 106.91C169.393 108.355 168.22 109.5 166.803 109.5H127.928C126.483 109.5 125.338 108.327 125.338 106.91V77.4127C125.338 75.9677 127.846 105.029 131.962 106.31C136.079 107.619 169.393 106.91 169.393 106.91Z" fill="#001C59"/>
<path d="M173.782 97.0685H154.181C152.981 97.0685 151.973 96.087 151.973 94.8603V87.854C151.973 86.6545 152.954 85.6458 154.181 85.6458H173.782C174.981 85.6458 175.99 86.6272 175.99 87.854V94.8603C175.963 96.0598 174.981 97.0685 173.782 97.0685ZM154.181 85.9183C153.118 85.9183 152.245 86.7907 152.245 87.854V94.8603C152.245 95.9235 153.118 96.7958 154.181 96.7958H173.782C174.845 96.7958 175.717 95.9235 175.717 94.8603V87.854C175.717 86.7907 174.845 85.9183 173.782 85.9183H154.181Z" fill="#00376E"/>
<path d="M157.07 93.0335C158.109 93.0335 158.951 92.1915 158.951 91.1525C158.951 90.1137 158.109 89.2715 157.07 89.2715C156.032 89.2715 155.189 90.1137 155.189 91.1525C155.189 92.1915 156.032 93.0335 157.07 93.0335Z" fill="#3913B8"/>
<path d="M189.565 123.539H108.625C106.554 123.539 104.863 121.849 104.863 119.777C104.863 117.705 106.554 116.015 108.625 116.015H189.565C191.637 116.015 193.327 117.705 193.327 119.777C193.355 121.849 191.665 123.539 189.565 123.539Z" fill="#F2F2F2"/>
<path d="M191.828 141.396H106.363C105.518 141.396 104.863 140.714 104.863 139.896V128.174C104.863 127.329 105.545 126.674 106.363 126.674H191.828C192.673 126.674 193.327 127.356 193.327 128.174V139.896C193.355 140.714 192.673 141.396 191.828 141.396Z" fill="#F2F2F2"/>
<path d="M149.109 141.75C153.385 141.75 156.852 138.284 156.852 134.008C156.852 129.732 153.385 126.266 149.109 126.266C144.833 126.266 141.367 129.732 141.367 134.008C141.367 138.284 144.833 141.75 149.109 141.75Z" fill="#3913B8"/>
<path d="M145.485 132.699L149.111 138.152L156.253 127.929C156.444 127.656 156.09 127.356 155.844 127.574L149.083 134.035L145.812 132.318C145.567 132.181 145.321 132.454 145.485 132.699Z" fill="#E9E1FF"/>
<path d="M59.5003 140.006H7.62141C5.52226 140.006 3.83203 138.315 3.83203 136.216V131.773C3.83203 129.674 5.52226 127.983 7.62141 127.983H59.5003C61.5995 127.983 63.2898 129.674 63.2898 131.773V136.216C63.2898 138.315 61.5995 140.006 59.5003 140.006Z" fill="#E9E1FF"/>
<path d="M122.747 16.7827H90.0059V18.7728H122.747V16.7827Z" fill="#3913B8"/>
<path d="M146.928 16.7827H124.41V18.7728H146.928V16.7827Z" fill="#3913B8"/>
<path d="M184.823 20.4087H145.484V22.3988H184.823V20.4087Z" fill="#3913B8"/>
<path d="M143.657 20.4087H90.0605V22.3988H143.657V20.4087Z" fill="#3913B8"/>
<path d="M181.279 31.9677H169.638C169.147 31.9677 168.738 31.5587 168.738 31.068V29.923C168.738 29.4322 169.147 29.0235 169.638 29.0235H181.279C181.769 29.0235 182.178 29.4322 182.178 29.923V31.068C182.178 31.586 181.769 31.9677 181.279 31.9677Z" fill="#3913B8"/>
<path d="M165.822 31.9677H154.181C153.69 31.9677 153.281 31.5587 153.281 31.068V29.923C153.281 29.4322 153.69 29.0235 154.181 29.0235H165.822C166.312 29.0235 166.721 29.4322 166.721 29.923V31.068C166.721 31.586 166.34 31.9677 165.822 31.9677Z" fill="#E9E1FF"/>
<path d="M25.0162 22.2625H12.5576C11.658 22.2625 10.9492 21.5537 10.9492 20.654V8.22271C10.9492 7.32306 11.658 6.61426 12.5576 6.61426H24.989C25.8887 6.61426 26.5975 7.32306 26.5975 8.22271V20.654C26.6247 21.5537 25.8887 22.2625 25.0162 22.2625ZM12.5576 6.88688C11.8216 6.88688 11.2218 7.48663 11.2218 8.22271V20.654C11.2218 21.3901 11.8216 21.9898 12.5576 21.9898H24.989C25.725 21.9898 26.3247 21.3901 26.3247 20.654V8.22271C26.3247 7.48663 25.725 6.88688 24.989 6.88688H12.5576Z" fill="#00376E"/>
<path d="M48.8685 38.8645H17.5722C16.1273 38.8645 14.9551 37.6923 14.9551 36.2475C14.9551 34.8025 16.1273 33.6302 17.5722 33.6302H48.8685C50.3135 33.6302 51.4858 34.8025 51.4858 36.2475C51.4858 37.6923 50.3135 38.8645 48.8685 38.8645ZM17.5722 33.8758C16.2636 33.8758 15.2277 34.939 15.2277 36.2202C15.2277 37.5015 16.2909 38.5648 17.5722 38.5648H48.8685C50.1773 38.5648 51.213 37.5015 51.213 36.2202C51.213 34.939 50.1498 33.8758 48.8685 33.8758H17.5722Z" fill="#3913B8"/>
<path d="M51.3225 40.037H15.0371V41.4002H51.3225V40.037Z" fill="#F2F2F2"/>
<path d="M56.4749 107.019H55.2754V90.4982H56.4749C56.8291 90.4982 57.1019 90.771 57.1019 91.1252V106.392C57.1019 106.719 56.8291 107.019 56.4749 107.019Z" fill="#E9E1FF"/>
<path d="M10.6485 36.7383H11.848V53.2588H10.6485C10.2941 53.2588 10.0215 52.9863 10.0215 52.6318V37.3653C10.0215 37.011 10.2941 36.7383 10.6485 36.7383Z" fill="#E9E1FF"/>
<path d="M42.7625 30.3318H23.5703C22.5071 30.3318 21.6348 29.4595 21.6348 28.3963V25.3975H44.7255V28.3963C44.7255 29.4595 43.853 30.3318 42.7625 30.3318Z" fill="#F2F2F2"/>
<path d="M27.1948 103.665H15.9902V100.776H27.1948V103.665ZM16.2629 103.393H26.9223V101.049H16.2629V103.393Z" fill="#3913B8"/>
<path d="M50.2062 100.912H28.5332V103.529H50.2062V100.912Z" fill="#3913B8"/>
<path d="M27.1967 108.464H15.9922V105.574H27.1967V108.464ZM16.2648 108.191H26.924V105.847H16.2648V108.191Z" fill="#3913B8"/>
<path d="M50.2062 105.711H28.5332V108.328H50.2062V105.711Z" fill="#3913B8"/>
<path d="M27.1967 113.262H15.9922V110.372H27.1967V113.262ZM16.2648 112.989H26.924V110.645H16.2648V112.989Z" fill="#3913B8"/>
<path d="M50.2062 110.509H28.5332V113.126H50.2062V110.509Z" fill="#3913B8"/>
<path d="M27.1967 118.06H15.9922V115.171H27.1967V118.06ZM16.2648 117.788H26.924V115.443H16.2648V117.788Z" fill="#00376E"/>
<path d="M50.3675 118.06H28.3945V115.171H50.3403V118.06H50.3675ZM28.667 117.788H50.0675V115.443H28.667V117.788Z" fill="#00376E"/>
<path d="M37.8837 121.849H14.7658C12.6667 121.849 10.9492 120.132 10.9492 118.032V29.7865C10.9492 27.6875 12.6667 25.97 14.7658 25.97H51.5962C53.6955 25.97 55.413 27.6875 55.413 29.7865V33.7395H55.1405V29.7865C55.1405 27.851 53.5592 26.2425 51.5962 26.2425H14.7658C12.8303 26.2425 11.2218 27.8237 11.2218 29.7865V118.032C11.2218 119.968 12.803 121.576 14.7658 121.576H37.8837V121.849Z" fill="#00376E"/>
<path d="M50.232 132.754H15.0371V133.027H50.232V132.754Z" fill="#00376E"/>
<path d="M57.1017 134.99H15.0371V135.262H57.1017V134.99Z" fill="#00376E"/>
<path d="M51.5956 121.85H47.6426V121.577H51.5956C53.5311 121.577 55.1396 119.996 55.1396 118.033V59.6927H55.4123V118.033C55.4123 120.132 53.6948 121.85 51.5956 121.85Z" fill="#00376E"/>
<path d="M50.7771 47.3433H27.9863V56.9668H50.7771V47.3433Z" fill="#3913B8"/>
<path d="M25.3432 57.1027H15.4473V47.2067H25.3432V57.1027ZM15.7199 56.8302H25.0707V47.4795H15.7199V56.8302Z" fill="#3913B8"/>
<path d="M15.6635 47.254L15.4707 47.4468L25.0897 57.0658L25.2825 56.873L15.6635 47.254Z" fill="#3913B8"/>
<path d="M25.1073 47.254L15.4883 56.873L15.681 57.0658L25.3 47.4468L25.1073 47.254Z" fill="#3913B8"/>
<path d="M41.399 86.7363H27.959V87.9903H41.399V86.7363Z" fill="#00376E"/>
<path d="M50.2317 90.498H27.959V91.234H50.2317V90.498Z" fill="#E9E1FF"/>
<path d="M50.2317 91.8613H27.959V92.5975H50.2317V91.8613Z" fill="#E9E1FF"/>
<path d="M50.2317 94.233H27.959V94.969H50.2317V94.233Z" fill="#E9E1FF"/>
<path d="M50.2317 95.5963H27.959V96.3323H50.2317V95.5963Z" fill="#E9E1FF"/>
<path d="M25.8863 96.4688H15.9902V86.5728H25.8863V96.4688ZM16.2629 96.196H25.6135V86.8453H16.2629V96.196Z" fill="#3913B8"/>
<path d="M16.2084 86.6245L16.0156 86.8175L25.6347 96.4365L25.8275 96.2438L16.2084 86.6245Z" fill="#3913B8"/>
<path d="M25.6523 86.6245L16.0332 96.2438L16.226 96.4365L25.845 86.8173L25.6523 86.6245Z" fill="#3913B8"/>
<path d="M51.4583 70.2705H14.9004V60.3745H51.4855V70.2705H51.4583ZM15.173 69.998H51.213V60.6473H15.173V69.998Z" fill="#3913B8"/>
<path d="M15.0581 60.3948L14.9883 60.6583L51.3 70.279L51.37 70.0155L15.0581 60.3948Z" fill="#3913B8"/>
<path d="M51.3155 60.3945L15 70.004L15.0697 70.2675L51.3853 60.658L51.3155 60.3945Z" fill="#3913B8"/>
<path d="M61.845 83.2467H7.04913C6.74926 83.2467 6.50391 83.0012 6.50391 82.7015V74.1685C6.50391 73.8687 6.74926 73.6232 7.04913 73.6232H61.845C62.145 73.6232 62.3903 73.8687 62.3903 74.1685V82.7015C62.3903 83.0012 62.145 83.2467 61.845 83.2467Z" fill="#A8BBDE"/>
<path d="M20.7083 76.3492H12.6934V76.622H20.7083V76.3492Z" fill="#3913B8"/>
<path d="M30.877 78.503H12.6934V78.7755H30.877V78.503Z" fill="#3913B8"/>
<path d="M55.2468 78.503H32.8105V78.7755H55.2468V78.503Z" fill="#3913B8"/>
<path d="M59.6375 80.2477H12.584V80.5205H59.6375V80.2477Z" fill="#3913B8"/>
<path d="M6.50389 82.3472C4.35022 82.3472 2.60547 80.6025 2.60547 78.4487C2.60547 76.295 4.35022 74.5502 6.50389 74.5502C8.65757 74.5502 10.4023 76.295 10.4023 78.4487C10.4023 80.6025 8.65757 82.3472 6.50389 82.3472ZM6.50389 74.7957C4.48652 74.7957 2.87809 76.4312 2.87809 78.4215C2.87809 80.4115 4.51379 82.0472 6.50389 82.0472C8.52124 82.0472 10.1297 80.4115 10.1297 78.4215C10.1297 76.4312 8.52124 74.7957 6.50389 74.7957Z" fill="#00376E"/>
<path d="M73.5961 36.0025H52.2773V38.1833H73.5961V36.0025Z" fill="#3913B8"/>
<path d="M81.1183 40.6367H52.3301V41.6727H81.1183V40.6367Z" fill="#E9E1FF"/>
<path d="M81.12 43.8268H49.6055V44.8625H81.12V43.8268Z" fill="#E9E1FF"/>
<path d="M73.9486 47.0435H52.3301V48.0795H73.9486V47.0435Z" fill="#E9E1FF"/>
<path d="M73.9486 50.2603H52.3301V51.2963H73.9486V50.2603Z" fill="#E9E1FF"/>
<path d="M81.1183 53.4498H52.3301V54.4858H81.1183V53.4498Z" fill="#E9E1FF"/>
<path d="M70.4046 56.6665H52.3301V57.7025H70.4046V56.6665Z" fill="#E9E1FF"/>
<path d="M103.72 113.862H102.356C102.275 113.862 102.22 113.807 102.22 113.725C102.22 113.644 102.275 113.589 102.356 113.589H103.72C103.801 113.589 103.856 113.644 103.856 113.725C103.856 113.807 103.801 113.862 103.72 113.862ZM100.993 113.862H99.6304C99.5484 113.862 99.4939 113.807 99.4939 113.725C99.4939 113.644 99.5484 113.589 99.6304 113.589H100.993C101.075 113.589 101.13 113.644 101.13 113.725C101.13 113.807 101.075 113.862 100.993 113.862ZM98.2672 113.862H96.9042C96.8224 113.862 96.7679 113.807 96.7679 113.725C96.7679 113.644 96.8224 113.589 96.9042 113.589H98.2672C98.3489 113.589 98.4034 113.644 98.4034 113.725C98.4034 113.807 98.3489 113.862 98.2672 113.862ZM95.5412 113.862H94.1779C94.0962 113.862 94.0417 113.807 94.0417 113.725C94.0417 113.644 94.0962 113.589 94.1779 113.589H95.5412C95.6229 113.589 95.6774 113.644 95.6774 113.725C95.6774 113.807 95.6229 113.862 95.5412 113.862ZM92.8149 113.862H91.4519C91.3699 113.862 91.3154 113.807 91.3154 113.725C91.3154 113.644 91.3699 113.589 91.4519 113.589H92.8149C92.8967 113.589 92.9512 113.644 92.9512 113.725C92.9512 113.807 92.8967 113.862 92.8149 113.862ZM90.0887 113.862H88.7257C88.6439 113.862 88.5894 113.807 88.5894 113.725C88.5894 113.644 88.6439 113.589 88.7257 113.589H90.0887C90.1704 113.589 90.2249 113.644 90.2249 113.725C90.2249 113.807 90.1704 113.862 90.0887 113.862ZM87.3627 113.862H85.9994C85.9177 113.862 85.8632 113.807 85.8632 113.725C85.8632 113.644 85.9177 113.589 85.9994 113.589H87.3627C87.4444 113.589 87.4989 113.644 87.4989 113.725C87.4989 113.807 87.4444 113.862 87.3627 113.862ZM84.6364 113.862H83.2734C83.1914 113.862 83.1369 113.807 83.1369 113.725C83.1369 113.644 83.1914 113.589 83.2734 113.589H84.6364C84.7182 113.589 84.7727 113.644 84.7727 113.725C84.7727 113.807 84.7182 113.862 84.6364 113.862ZM81.9102 113.862H80.5472C80.4654 113.862 80.4109 113.807 80.4109 113.725C80.4109 113.644 80.4654 113.589 80.5472 113.589H81.9102C81.9919 113.589 82.0464 113.644 82.0464 113.725C82.0464 113.807 81.9919 113.862 81.9102 113.862ZM79.1842 113.862H77.8209C77.7392 113.862 77.6847 113.807 77.6847 113.725C77.6847 113.644 77.7392 113.589 77.8209 113.589H79.1842C79.2659 113.589 79.3204 113.644 79.3204 113.725C79.3204 113.807 79.2659 113.862 79.1842 113.862ZM76.4579 113.862H75.2584C75.2039 113.862 75.1494 113.862 75.0949 113.862C75.0129 113.862 74.9584 113.807 74.9584 113.725C74.9584 113.644 75.0402 113.589 75.0949 113.589C75.1494 113.589 75.2039 113.589 75.2312 113.589H76.4307C76.5124 113.589 76.5669 113.644 76.5669 113.725C76.5669 113.807 76.5397 113.862 76.4579 113.862ZM73.8134 113.48C73.7862 113.48 73.7589 113.48 73.7317 113.453C73.3229 113.207 72.9684 112.88 72.6957 112.471C72.6412 112.417 72.6684 112.335 72.7232 112.281C72.7777 112.226 72.8594 112.253 72.9139 112.308C73.1592 112.662 73.4592 112.989 73.8407 113.207C73.8954 113.235 73.9227 113.317 73.8954 113.398C73.8954 113.453 73.8407 113.48 73.8134 113.48ZM72.3959 111.272C72.3142 111.272 72.2597 111.217 72.2597 111.136C72.2597 111.027 72.2324 110.945 72.2324 110.836V109.745C72.2324 109.663 72.2869 109.609 72.3687 109.609C72.4504 109.609 72.5049 109.663 72.5049 109.745V110.836C72.5049 110.917 72.5049 111.027 72.5049 111.108C72.5322 111.19 72.4777 111.245 72.3959 111.272ZM72.3687 108.546C72.2869 108.546 72.2324 108.491 72.2324 108.409V107.046C72.2324 106.965 72.2869 106.91 72.3687 106.91C72.4504 106.91 72.5049 106.965 72.5049 107.046V108.409C72.5049 108.464 72.4504 108.546 72.3687 108.546ZM72.3687 105.82C72.2869 105.82 72.2324 105.765 72.2324 105.683V104.32C72.2324 104.238 72.2869 104.184 72.3687 104.184C72.4504 104.184 72.5049 104.238 72.5049 104.32V105.683C72.5049 105.738 72.4504 105.82 72.3687 105.82ZM72.3687 103.093C72.2869 103.093 72.2324 103.039 72.2324 102.957V101.594C72.2324 101.512 72.2869 101.458 72.3687 101.458C72.4504 101.458 72.5049 101.512 72.5049 101.594V102.957C72.5049 103.012 72.4504 103.093 72.3687 103.093ZM72.3687 100.367C72.2869 100.367 72.2324 100.313 72.2324 100.231V98.8678C72.2324 98.786 72.2869 98.7315 72.3687 98.7315C72.4504 98.7315 72.5049 98.786 72.5049 98.8678V100.231C72.5049 100.285 72.4504 100.367 72.3687 100.367ZM72.3687 97.641C72.2869 97.641 72.2324 97.5865 72.2324 97.5048V96.1415C72.2324 96.0598 72.2869 96.0053 72.3687 96.0053C72.4504 96.0053 72.5049 96.0598 72.5049 96.1415V97.5048C72.5049 97.5593 72.4504 97.641 72.3687 97.641ZM72.3687 94.9148C72.2869 94.9148 72.2324 94.8603 72.2324 94.7785V93.4155C72.2324 93.3335 72.2869 93.279 72.3687 93.279C72.4504 93.279 72.5049 93.3335 72.5049 93.4155V94.7785C72.5049 94.833 72.4504 94.9148 72.3687 94.9148ZM72.3687 92.1885C72.2869 92.1885 72.2324 92.134 72.2324 92.0523V90.6893C72.2324 90.6075 72.2869 90.553 72.3687 90.553C72.4504 90.553 72.5049 90.6075 72.5049 90.6893V92.0523C72.5049 92.1068 72.4504 92.1885 72.3687 92.1885ZM72.3687 89.4625C72.2869 89.4625 72.2324 89.408 72.2324 89.3263V87.963C72.2324 87.8813 72.2869 87.8268 72.3687 87.8268C72.4504 87.8268 72.5049 87.8813 72.5049 87.963V89.3263C72.5049 89.3808 72.4504 89.4625 72.3687 89.4625ZM72.3687 86.7363C72.2869 86.7363 72.2324 86.6818 72.2324 86.6V85.237C72.2324 85.155 72.2869 85.1005 72.3687 85.1005C72.4504 85.1005 72.5049 85.155 72.5049 85.237V86.6C72.5049 86.6545 72.4504 86.7363 72.3687 86.7363ZM72.3687 84.01C72.2869 84.01 72.2324 83.9555 72.2324 83.8738V82.5108C72.2324 82.429 72.2869 82.3745 72.3687 82.3745C72.4504 82.3745 72.5049 82.429 72.5049 82.5108V83.8738C72.5049 83.9283 72.4504 84.01 72.3687 84.01ZM72.3687 81.284C72.2869 81.284 72.2324 81.2295 72.2324 81.1478V79.7845C72.2324 79.7028 72.2869 79.6483 72.3687 79.6483C72.4504 79.6483 72.5049 79.7028 72.5049 79.7845V81.1478C72.5049 81.2023 72.4504 81.284 72.3687 81.284ZM72.3687 78.5578C72.2869 78.5578 72.2324 78.5033 72.2324 78.4215V77.0585C72.2324 76.9765 72.2869 76.922 72.3687 76.922C72.4504 76.922 72.5049 76.9765 72.5049 77.0585V78.4215C72.5049 78.476 72.4504 78.5578 72.3687 78.5578ZM72.3687 75.8315C72.2869 75.8315 72.2324 75.777 72.2324 75.6953V74.3323C72.2324 74.2505 72.2869 74.196 72.3687 74.196C72.4504 74.196 72.5049 74.2505 72.5049 74.3323V75.6953C72.5049 75.7498 72.4504 75.8315 72.3687 75.8315ZM72.3687 73.1055C72.2869 73.1055 72.2324 73.051 72.2324 72.9693V71.606C72.2324 71.5243 72.2869 71.4698 72.3687 71.4698C72.4504 71.4698 72.5049 71.5243 72.5049 71.606V72.9693C72.5049 73.0238 72.4504 73.1055 72.3687 73.1055ZM72.3687 70.3793C72.2869 70.3793 72.2324 70.3248 72.2324 70.243V68.88C72.2324 68.798 72.2869 68.7435 72.3687 68.7435C72.4504 68.7435 72.5049 68.798 72.5049 68.88V70.243C72.5049 70.2975 72.4504 70.3793 72.3687 70.3793ZM72.3687 67.653C72.2869 67.653 72.2324 67.5985 72.2324 67.5168V66.1538C72.2324 66.072 72.2869 66.0175 72.3687 66.0175C72.4504 66.0175 72.5049 66.072 72.5049 66.1538V67.5168C72.5049 67.5713 72.4504 67.653 72.3687 67.653ZM72.3687 64.927C72.2869 64.927 72.2324 64.8725 72.2324 64.7908V63.4275C72.2324 63.3458 72.2869 63.2913 72.3687 63.2913C72.4504 63.2913 72.5049 63.3458 72.5049 63.4275V64.7908C72.5049 64.8453 72.4504 64.927 72.3687 64.927ZM72.4777 62.2008H72.4504C72.3687 62.1735 72.3414 62.119 72.3414 62.0373C72.4777 61.5738 72.6957 61.1375 73.0229 60.8105C73.0774 60.756 73.1592 60.756 73.2137 60.8105C73.2682 60.865 73.2682 60.9468 73.2137 61.0013C72.9139 61.3285 72.6957 61.71 72.5867 62.119C72.5867 62.1463 72.5322 62.2008 72.4777 62.2008ZM74.2224 60.2653C74.1679 60.2653 74.1134 60.238 74.0862 60.1835C74.0589 60.1018 74.0862 60.047 74.1679 60.0198C74.4952 59.8835 74.8494 59.829 75.2312 59.829H75.5582C75.6402 59.829 75.6947 59.8835 75.6947 59.9653C75.6947 60.047 75.6402 60.1018 75.5582 60.1018H75.2312C74.9039 60.1018 74.5769 60.1563 74.2769 60.2653C74.2769 60.2653 74.2497 60.2653 74.2224 60.2653ZM83.7639 60.0743H82.4009C82.3192 60.0743 82.2647 60.0198 82.2647 59.938C82.2647 59.8563 82.3192 59.8018 82.4009 59.8018H83.7639C83.8459 59.8018 83.9004 59.8563 83.9004 59.938C83.9004 60.0198 83.8187 60.0743 83.7639 60.0743ZM81.0379 60.0743H79.6747C79.5929 60.0743 79.5384 60.0198 79.5384 59.938C79.5384 59.8563 79.5929 59.8018 79.6747 59.8018H81.0379C81.1197 59.8018 81.1742 59.8563 81.1742 59.938C81.1742 60.0198 81.0924 60.0743 81.0379 60.0743ZM78.3117 60.0743H76.9487C76.8669 60.0743 76.8124 60.0198 76.8124 59.938C76.8124 59.8563 76.8669 59.8018 76.9487 59.8018H78.3117C78.3934 59.8018 78.4479 59.8563 78.4479 59.938C78.4479 60.0198 78.3662 60.0743 78.3117 60.0743Z" fill="#00376E"/>
<path d="M82.3731 67.2443H76.5391V73.0783H82.3731V67.2443Z" fill="#E9E1FF"/>
<path d="M80.3008 72.0695L78.7741 69.9702C78.6923 69.8612 78.7196 69.6702 78.8288 69.5885C78.9378 69.5067 79.1286 69.534 79.2103 69.643L80.3826 71.2515L84.5263 67.6802C84.6353 67.5712 84.7991 67.5985 84.9081 67.7075C85.0171 67.8165 84.9898 67.9802 84.8808 68.0892L80.3008 72.0695Z" fill="#3913B8"/>
<path d="M82.3731 78.2578H76.5391V84.0918H82.3731V78.2578Z" fill="#E9E1FF"/>
<path d="M80.3008 83.0833L78.7741 80.9843C78.6923 80.875 78.7196 80.6843 78.8288 80.6025C78.9378 80.5208 79.1286 80.548 79.2103 80.657L80.3826 82.2655L84.5263 78.6943C84.6353 78.5853 84.7991 78.6125 84.9081 78.7215C85.0171 78.8305 84.9898 78.994 84.8808 79.103L80.3008 83.0833Z" fill="#3913B8"/>
<path d="M82.3731 89.2715H76.5391V95.1055H82.3731V89.2715Z" fill="#E9E1FF"/>
<path d="M80.3008 94.097L78.7741 91.9978C78.6923 91.8888 78.7196 91.698 78.8288 91.6163C78.9378 91.5345 79.1286 91.5618 79.2103 91.6708L80.3826 93.279L84.5263 89.7078C84.6353 89.5988 84.7991 89.626 84.9081 89.735C85.0171 89.8443 84.9898 90.0078 84.8808 90.1168L80.3008 94.097Z" fill="#3913B8"/>
<path d="M82.3731 100.285H76.5391V106.119H82.3731V100.285Z" fill="#E9E1FF"/>
<path d="M80.3008 105.111L78.7741 103.011C78.6923 102.902 78.7196 102.711 78.8288 102.63C78.9378 102.548 79.1286 102.575 79.2103 102.684L80.3826 104.293L84.5263 100.721C84.6353 100.612 84.7991 100.64 84.9081 100.749C85.0171 100.858 84.9898 101.021 84.8808 101.13L80.3008 105.111Z" fill="#3913B8"/>
<path opacity="0.4" d="M108.981 68.3073H87.2266V72.0147H108.981V68.3073Z" fill="#3913B8"/>
<path d="M109.144 83.1648H87.1172V79.1845H109.144V83.1648ZM87.3624 82.8923H108.845V79.4573H87.3624V82.8923Z" fill="#3913B8"/>
<path d="M109.144 94.1787H87.1172V90.1985H109.144V94.1787ZM87.3624 93.906H108.845V90.471H87.3624V93.906Z" fill="#3913B8"/>
<path d="M190.275 143.386H165.412V139.406H190.275V143.386ZM165.658 143.113H189.975V139.679H165.658V143.113Z" fill="#3913B8"/>
<path d="M130.354 137.389H113.18V133.408H130.354V137.389ZM113.425 137.116H130.055V133.681H113.425V137.116Z" fill="#3913B8"/>
<path d="M130.353 143.386H108.871V139.406H130.353V143.386ZM109.144 143.113H130.081V139.679H109.144V143.113Z" fill="#3913B8"/>
<path opacity="0.4" d="M108.981 101.349H87.2266V105.056H108.981V101.349Z" fill="#3913B8"/>
<path d="M23.1883 19.1275H14.3828V17.41C14.3828 16.0742 15.446 15.011 16.7819 15.011H20.7893C22.1251 15.011 23.1883 16.0742 23.1883 17.41V19.1275Z" fill="#3913B8"/>
<path d="M18.7728 14.0295C19.9622 14.0295 20.9265 13.0653 20.9265 11.8758C20.9265 10.6864 19.9622 9.72217 18.7728 9.72217C17.5834 9.72217 16.6191 10.6864 16.6191 11.8758C16.6191 13.0653 17.5834 14.0295 18.7728 14.0295Z" fill="#3913B8"/>
<path d="M102.957 48.8425H97.7495L97.3678 45.7348C97.3678 45.1623 96.1138 42 94.5325 42.5725C93.9873 42.7633 93.6603 43.3358 93.6603 43.9083V48.161C93.6603 49.1153 92.8695 49.9058 91.9155 49.9058H90.416V59.0658H93.6058C94.2328 59.0658 94.8325 59.311 95.2685 59.7473L95.323 59.8018C96.0048 60.4833 102.52 61.4375 104.101 60.238C104.729 59.7473 105.219 59.1748 105.219 58.575V51.1325C105.274 49.8785 104.238 48.8425 102.957 48.8425Z" fill="#3913B8"/>
<path d="M91.8066 48.788H87.2266V60.2108H91.8066V48.788Z" fill="#E9E1FF"/>
<path d="M188.476 132.835H186.268L186.104 131.527C186.104 131.281 185.586 129.946 184.905 130.191C184.687 130.273 184.523 130.518 184.523 130.764V132.563C184.523 132.972 184.196 133.299 183.787 133.299H183.16V137.17H184.523C184.796 137.17 185.041 137.279 185.232 137.47L185.259 137.497C185.532 137.77 188.312 138.179 188.994 137.688C189.267 137.47 189.485 137.252 189.485 136.979V133.817C189.457 133.272 189.021 132.835 188.476 132.835Z" fill="#00376E"/>
<path d="M183.733 132.808H181.797V137.661H183.733V132.808Z" fill="#00376E"/>
<path d="M81.5281 15.0925C82.1153 15.0925 82.5913 14.6164 82.5913 14.0293C82.5913 13.4421 82.1153 12.9661 81.5281 12.9661C80.9408 12.9661 80.4648 13.4421 80.4648 14.0293C80.4648 14.6164 80.9408 15.0925 81.5281 15.0925Z" fill="#00376E"/>
<path d="M105.682 29.3778C106.028 29.3778 106.309 29.097 106.309 28.7508C106.309 28.4045 106.028 28.1238 105.682 28.1238C105.335 28.1238 105.055 28.4045 105.055 28.7508C105.055 29.097 105.335 29.3778 105.682 29.3778Z" fill="#00376E"/>
<path d="M108.299 29.3775C108.645 29.3775 108.926 29.0967 108.926 28.7505C108.926 28.4042 108.645 28.1235 108.299 28.1235C107.953 28.1235 107.672 28.4042 107.672 28.7505C107.672 29.0967 107.953 29.3775 108.299 29.3775Z" fill="#3913B8"/>
<path d="M110.891 29.3775C111.237 29.3775 111.518 29.0967 111.518 28.7505C111.518 28.4042 111.237 28.1235 110.891 28.1235C110.544 28.1235 110.264 28.4042 110.264 28.7505C110.264 29.0967 110.544 29.3775 110.891 29.3775Z" fill="#E9E1FF"/>
<path d="M81.5291 28.7507C81.4471 28.7507 81.3926 28.6962 81.3926 28.6145V27.2512C81.3926 27.1695 81.4471 27.115 81.5291 27.115C81.6108 27.115 81.6653 27.1695 81.6653 27.2512V28.6145C81.6653 28.6962 81.5836 28.7507 81.5291 28.7507ZM81.5291 26.0245C81.4471 26.0245 81.3926 25.97 81.3926 25.8882V24.5252C81.3926 24.4434 81.4471 24.3888 81.5291 24.3888C81.6108 24.3888 81.6653 24.4434 81.6653 24.5252V25.8882C81.6653 25.97 81.5836 26.0245 81.5291 26.0245ZM81.5291 23.2984C81.4471 23.2984 81.3926 23.2439 81.3926 23.1621V21.799C81.3926 21.7172 81.4471 21.6627 81.5291 21.6627C81.6108 21.6627 81.6653 21.7172 81.6653 21.799V23.1621C81.6653 23.2439 81.5836 23.2984 81.5291 23.2984ZM81.5291 20.5722C81.4471 20.5722 81.3926 20.5177 81.3926 20.4359V19.0728C81.3926 18.991 81.4471 18.9365 81.5291 18.9365C81.6108 18.9365 81.6653 18.991 81.6653 19.0728V20.4359C81.6653 20.5177 81.5836 20.5722 81.5291 20.5722Z" fill="#00376E"/>
<path d="M81.5292 19.2091C81.4475 19.2091 81.393 19.1546 81.393 19.0728V14.1657H73.2417C73.16 14.1657 73.1055 14.1111 73.1055 14.0294C73.1055 13.9476 73.16 13.8931 73.2417 13.8931H81.6657V19.0728C81.6657 19.1546 81.5837 19.2091 81.5292 19.2091Z" fill="#00376E"/>
<path d="M73.2147 14.1657H72.2062C72.1242 14.1657 72.0697 14.1111 72.0697 14.0294C72.0697 13.9476 72.1242 13.8931 72.2062 13.8931H73.2147C73.2964 13.8931 73.3512 13.9476 73.3512 14.0294C73.3512 14.1111 73.2964 14.1657 73.2147 14.1657ZM70.8429 14.1657H69.4799C69.3982 14.1657 69.3437 14.1111 69.3437 14.0294C69.3437 13.9476 69.3982 13.8931 69.4799 13.8931H70.8429C70.9247 13.8931 70.9792 13.9476 70.9792 14.0294C70.9792 14.1111 70.9247 14.1657 70.8429 14.1657ZM68.1169 14.1657H66.7537C66.6719 14.1657 66.6174 14.1111 66.6174 14.0294C66.6174 13.9476 66.6719 13.8931 66.7537 13.8931H68.1169C68.1987 13.8931 68.2532 13.9476 68.2532 14.0294C68.2532 14.1111 68.1987 14.1657 68.1169 14.1657ZM65.3907 14.1657H64.0277C63.9457 14.1657 63.8912 14.1111 63.8912 14.0294C63.8912 13.9476 63.9457 13.8931 64.0277 13.8931H65.3907C65.4724 13.8931 65.5269 13.9476 65.5269 14.0294C65.5269 14.1111 65.4724 14.1657 65.3907 14.1657ZM62.6644 14.1657H61.3014C61.2197 14.1657 61.1652 14.1111 61.1652 14.0294C61.1652 13.9476 61.2197 13.8931 61.3014 13.8931H62.6644C62.7462 13.8931 62.8007 13.9476 62.8007 14.0294C62.8007 14.1111 62.7462 14.1657 62.6644 14.1657ZM59.9384 14.1657H58.5752C58.4934 14.1657 58.4389 14.1111 58.4389 14.0294C58.4389 13.9476 58.4934 13.8931 58.5752 13.8931H59.9384C60.0202 13.8931 60.0747 13.9476 60.0747 14.0294C60.0747 14.1111 60.0202 14.1657 59.9384 14.1657ZM57.2122 14.1657H55.8492C55.7672 14.1657 55.7127 14.1111 55.7127 14.0294C55.7127 13.9476 55.7672 13.8931 55.8492 13.8931H57.2122C57.2939 13.8931 57.3484 13.9476 57.3484 14.0294C57.3484 14.1111 57.2939 14.1657 57.2122 14.1657ZM54.4859 14.1657H53.1229C53.0412 14.1657 52.9867 14.1111 52.9867 14.0294C52.9867 13.9476 53.0412 13.8931 53.1229 13.8931H54.4859C54.5677 13.8931 54.6222 13.9476 54.6222 14.0294C54.6222 14.1111 54.5677 14.1657 54.4859 14.1657ZM51.7599 14.1657H50.3967C50.3149 14.1657 50.2604 14.1111 50.2604 14.0294C50.2604 13.9476 50.3149 13.8931 50.3967 13.8931H51.7599C51.8417 13.8931 51.8962 13.9476 51.8962 14.0294C51.8962 14.1111 51.8417 14.1657 51.7599 14.1657ZM49.0337 14.1657H47.6707C47.5887 14.1657 47.5342 14.1111 47.5342 14.0294C47.5342 13.9476 47.5887 13.8931 47.6707 13.8931H49.0337C49.1154 13.8931 49.1699 13.9476 49.1699 14.0294C49.1699 14.1111 49.1154 14.1657 49.0337 14.1657ZM46.3074 14.1657H44.9444C44.8627 14.1657 44.8082 14.1111 44.8082 14.0294C44.8082 13.9476 44.8627 13.8931 44.9444 13.8931H46.3074C46.3892 13.8931 46.4437 13.9476 46.4437 14.0294C46.4437 14.1111 46.3892 14.1657 46.3074 14.1657ZM43.5814 14.1657H42.2182C42.1364 14.1657 42.0819 14.1111 42.0819 14.0294C42.0819 13.9476 42.1364 13.8931 42.2182 13.8931H43.5814C43.6632 13.8931 43.7177 13.9476 43.7177 14.0294C43.7177 14.1111 43.6632 14.1657 43.5814 14.1657ZM40.8552 14.1657H39.4922C39.4102 14.1657 39.3557 14.1111 39.3557 14.0294C39.3557 13.9476 39.4102 13.8931 39.4922 13.8931H40.8552C40.9369 13.8931 40.9914 13.9476 40.9914 14.0294C40.9914 14.1111 40.9369 14.1657 40.8552 14.1657ZM38.1289 14.1657H36.7659C36.6842 14.1657 36.6297 14.1111 36.6297 14.0294C36.6297 13.9476 36.6842 13.8931 36.7659 13.8931H38.1289C38.2107 13.8931 38.2654 13.9476 38.2654 14.0294C38.2654 14.1111 38.2107 14.1657 38.1289 14.1657ZM35.4029 14.1657H34.0397C33.9579 14.1657 33.9034 14.1111 33.9034 14.0294C33.9034 13.9476 33.9579 13.8931 34.0397 13.8931H35.4029C35.4847 13.8931 35.5392 13.9476 35.5392 14.0294C35.5392 14.1111 35.4847 14.1657 35.4029 14.1657ZM32.6767 14.1657H31.3137C31.2317 14.1657 31.1772 14.1111 31.1772 14.0294C31.1772 13.9476 31.2317 13.8931 31.3137 13.8931H32.6767C32.7584 13.8931 32.8129 13.9476 32.8129 14.0294C32.8129 14.1111 32.7584 14.1657 32.6767 14.1657ZM29.9504 14.1657H28.5874C28.5057 14.1657 28.4512 14.1111 28.4512 14.0294C28.4512 13.9476 28.5057 13.8931 28.5874 13.8931H29.9504C30.0322 13.8931 30.0869 13.9476 30.0869 14.0294C30.0869 14.1111 30.0322 14.1657 29.9504 14.1657Z" fill="#00376E"/>
<path d="M117.624 44.4805H104.211V32.8942C104.211 32.8125 104.265 32.758 104.347 32.758C104.429 32.758 104.483 32.8125 104.483 32.8942V44.208H117.624C117.705 44.208 117.76 44.2625 117.76 44.3442C117.76 44.426 117.705 44.4805 117.624 44.4805Z" fill="#00376E"/>
<path d="M122.394 46.4707H117.623C117.541 46.4707 117.486 46.4162 117.486 46.3345C117.486 46.2527 117.541 46.1982 117.623 46.1982H122.394C122.475 46.1982 122.53 46.2527 122.53 46.3345C122.53 46.4162 122.475 46.4707 122.394 46.4707Z" fill="#00376E"/>
<path d="M128.827 44.481H122.394C122.312 44.481 122.257 44.4265 122.257 44.3445C122.257 44.2627 122.312 44.2082 122.394 44.2082H128.555V30.4685H100.802C100.721 30.4685 100.666 30.414 100.666 30.332C100.666 30.2502 100.721 30.1957 100.802 30.1957H128.827V44.481Z" fill="#00376E"/>
<path d="M97.8589 30.4685H81.6929C81.6111 30.4685 81.5566 30.414 81.5566 30.332C81.5566 30.2502 81.6111 30.1957 81.6929 30.1957H97.8589C97.9409 30.1957 97.9954 30.2502 97.9954 30.332C97.9954 30.414 97.9136 30.4685 97.8589 30.4685Z" fill="#00376E"/>
<path d="M120.894 33.6305H107.154C107.072 33.6305 107.018 33.576 107.018 33.4943C107.018 33.4125 107.072 33.358 107.154 33.358H120.894C120.976 33.358 121.03 33.4125 121.03 33.4943C121.03 33.576 120.976 33.6305 120.894 33.6305Z" fill="#00376E"/>
<path d="M125.556 35.1575H107.263C107.181 35.1575 107.127 35.1028 107.127 35.021C107.127 34.9393 107.181 34.8848 107.263 34.8848H125.556C125.637 34.8848 125.692 34.9393 125.692 35.021C125.692 35.1028 125.637 35.1575 125.556 35.1575Z" fill="#00376E"/>
<path d="M125.556 36.711H107.263C107.181 36.711 107.127 36.6565 107.127 36.5747C107.127 36.493 107.181 36.4385 107.263 36.4385H125.556C125.637 36.4385 125.692 36.493 125.692 36.5747C125.692 36.6565 125.637 36.711 125.556 36.711Z" fill="#00376E"/>
<path d="M122.366 28.8325H113.015C112.933 28.8325 112.879 28.778 112.879 28.696C112.879 28.6143 112.933 28.5598 113.015 28.5598H122.366C122.448 28.5598 122.502 28.6143 122.502 28.696C122.502 28.778 122.448 28.8325 122.366 28.8325Z" fill="#00376E"/>
<path d="M102.03 119.014H72.3691V120.323H102.03V119.014Z" fill="#00376E"/>
<path d="M102.03 121.713H72.3691V123.022H102.03V121.713Z" fill="#00376E"/>
<path d="M109.009 126.702H72.3691V128.01H109.009V126.702Z" fill="#00376E"/>
<path d="M109.009 129.401H72.3691V130.71H109.009V129.401Z" fill="#00376E"/>
<path d="M197.363 122.095H188.367C188.285 122.095 188.23 122.04 188.23 121.958C188.23 121.877 188.285 121.822 188.367 121.822H197.363C197.445 121.822 197.499 121.877 197.499 121.958C197.499 122.04 197.445 122.095 197.363 122.095Z" fill="#00376E"/>
<path d="M188.312 49.2242H172.664C171.656 49.2242 170.838 48.4065 170.838 47.3977V44.1262C170.838 43.1177 171.656 42.2997 172.664 42.2997H188.312C189.321 42.2997 190.139 43.1177 190.139 44.1262V47.3977C190.139 48.4065 189.321 49.2242 188.312 49.2242Z" fill="#A8BBDE"/>
<path d="M116.15 42.5453H112.742V39.1375H116.15V42.5453ZM112.987 42.2725H115.85V39.41H112.987V42.2725Z" fill="#00376E"/>
<path d="M120.921 42.545H117.514V39.1373H120.921V42.545ZM117.759 42.2723H120.621V39.4098H117.759V42.2723Z" fill="#00376E"/>
<path d="M125.693 42.5453H122.285V39.1375H125.693V42.5453ZM122.53 42.2725H125.393V39.41H122.53V42.2725Z" fill="#00376E"/>
<path d="M110.889 39.4098H107.263C107.181 39.4098 107.127 39.3553 107.127 39.2735C107.127 39.1918 107.181 39.1373 107.263 39.1373H110.889C110.971 39.1373 111.025 39.1918 111.025 39.2735C111.025 39.3553 110.971 39.4098 110.889 39.4098Z" fill="#00376E"/>
<path d="M110.889 40.9912H107.263C107.181 40.9912 107.127 40.9367 107.127 40.855C107.127 40.7732 107.181 40.7188 107.263 40.7188H110.889C110.971 40.7188 111.025 40.7732 111.025 40.855C111.025 40.9367 110.971 40.9912 110.889 40.9912Z" fill="#00376E"/>
<path d="M110.889 42.545H107.263C107.181 42.545 107.127 42.4905 107.127 42.4088C107.127 42.327 107.181 42.2725 107.263 42.2725H110.889C110.971 42.2725 111.025 42.327 111.025 42.4088C111.025 42.4905 110.971 42.545 110.889 42.545Z" fill="#00376E"/>
<path d="M122.394 47.5885H117.623C117.541 47.5885 117.486 47.534 117.486 47.4522C117.486 47.3705 117.541 47.316 117.623 47.316H122.394C122.475 47.316 122.53 47.3705 122.53 47.4522C122.53 47.534 122.475 47.5885 122.394 47.5885Z" fill="#00376E"/>
<path d="M122.394 49.9328H117.623C117.541 49.9328 117.486 49.8783 117.486 49.7965C117.486 49.7148 117.541 49.6603 117.623 49.6603H122.394C122.475 49.6603 122.53 49.7148 122.53 49.7965C122.53 49.8783 122.475 49.9328 122.394 49.9328Z" fill="#00376E"/>
<path d="M122.394 51.051H117.623C117.541 51.051 117.486 50.9965 117.486 50.9148C117.486 50.8328 117.541 50.7783 117.623 50.7783H122.394C122.475 50.7783 122.53 50.8328 122.53 50.9148C122.53 50.9965 122.475 51.051 122.394 51.051Z" fill="#00376E"/>
<path d="M115.034 57.839H110.263C110.181 57.839 110.127 57.7845 110.127 57.7028C110.127 57.621 110.181 57.5665 110.263 57.5665H115.034C115.116 57.5665 115.17 57.621 115.17 57.7028C115.17 57.7845 115.116 57.839 115.034 57.839Z" fill="#00376E"/>
<path d="M115.034 58.9568H110.263C110.181 58.9568 110.127 58.9023 110.127 58.8205C110.127 58.7385 110.181 58.684 110.263 58.684H115.034C115.116 58.684 115.17 58.7385 115.17 58.8205C115.17 58.9023 115.116 58.9568 115.034 58.9568Z" fill="#00376E"/>
<path d="M119.231 57.839H116.342C116.26 57.839 116.205 57.7845 116.205 57.7028C116.205 57.621 116.26 57.5665 116.342 57.5665H119.231C119.313 57.5665 119.368 57.621 119.368 57.7028C119.368 57.7845 119.313 57.839 119.231 57.839Z" fill="#00376E"/>
<path d="M119.231 58.9568H116.342C116.26 58.9568 116.205 58.9023 116.205 58.8205C116.205 58.7385 116.26 58.684 116.342 58.684H119.231C119.313 58.684 119.368 58.7385 119.368 58.8205C119.368 58.9023 119.313 58.9568 119.231 58.9568Z" fill="#00376E"/>
<path d="M122.394 60.4833H117.623C117.541 60.4833 117.486 60.4288 117.486 60.347C117.486 60.2653 117.541 60.2108 117.623 60.2108H122.394C122.475 60.2108 122.53 60.2653 122.53 60.347C122.53 60.4288 122.475 60.4833 122.394 60.4833Z" fill="#00376E"/>
<path d="M122.394 61.601H117.623C117.541 61.601 117.486 61.5465 117.486 61.4647C117.486 61.383 117.541 61.3282 117.623 61.3282H122.394C122.475 61.3282 122.53 61.383 122.53 61.4647C122.53 61.5465 122.475 61.601 122.394 61.601Z" fill="#00376E"/>
<path d="M116.533 51.0507H110.127V46.1982H116.533V51.0507ZM110.399 50.7782H116.261V46.4707H110.399V50.7782Z" fill="#00376E"/>
<path d="M122.531 55.6853H110.127V53.15H122.531V55.6853ZM110.399 55.4125H122.258V53.4225H110.399V55.4125Z" fill="#00376E"/>
<path d="M189.375 109.5C189.293 109.5 189.238 109.445 189.238 109.363V54.0495C189.238 53.9675 189.293 53.913 189.375 53.913C189.456 53.913 189.511 53.9675 189.511 54.0495V109.363C189.511 109.418 189.456 109.5 189.375 109.5Z" fill="#00376E"/>
<path d="M189.376 109.364C188.858 109.364 188.449 108.955 188.449 108.464V89.6533C188.449 89.1625 188.858 88.7538 189.349 88.7538H189.376C189.867 88.7538 190.276 89.1625 190.276 89.6533V108.464C190.303 108.955 189.894 109.364 189.376 109.364Z" fill="#E9E1FF"/>
<path d="M190.083 54.1858H188.72C188.638 54.1858 188.584 54.1313 188.584 54.0495C188.584 53.9675 188.638 53.913 188.72 53.913H190.083C190.165 53.913 190.22 53.9675 190.22 54.0495C190.22 54.1313 190.165 54.1858 190.083 54.1858Z" fill="#00376E"/>
<path d="M190.111 109.636H188.748C188.666 109.636 188.611 109.581 188.611 109.5C188.611 109.418 188.666 109.363 188.748 109.363H190.111C190.193 109.363 190.247 109.418 190.247 109.5C190.247 109.581 190.193 109.636 190.111 109.636Z" fill="#00376E"/>
<path d="M183.132 121.959C187.385 121.959 187.712 112.799 187.712 112.799C184.795 113.18 182.178 116.016 182.178 116.016C182.178 116.016 186.839 110.481 182.968 102.167C178.525 106.747 179.697 113.944 179.697 113.944C178.606 110.427 176.262 108.082 176.262 108.082C173.536 113.289 177.816 119.641 177.816 119.641C177.816 119.641 175.717 118.933 174.408 118.524C175.253 122.258 177.816 121.931 177.816 121.931L183.132 121.959Z" fill="#A8BBDE"/>
<path d="M46.47 121.113H39.082V125.83H46.47V121.113Z" fill="#A8BBDE"/>
<path d="M19.8082 28.7235H14.2741C14.0287 28.7235 13.8379 28.5325 13.8379 28.2873C13.8379 28.042 14.0287 27.851 14.2741 27.851H19.8082C20.0535 27.851 20.2444 28.042 20.2444 28.2873C20.2444 28.5325 20.0535 28.7235 19.8082 28.7235Z" fill="#3913B8"/>
<path d="M52.0581 28.7235H46.5239C46.2786 28.7235 46.0879 28.5325 46.0879 28.2873C46.0879 28.042 46.2786 27.851 46.5239 27.851H52.0581C52.3034 27.851 52.4944 28.042 52.4944 28.2873C52.4944 28.5325 52.3034 28.7235 52.0581 28.7235Z" fill="#3913B8"/>
<path d="M14.0838 128.147H5.74177C5.65999 128.147 5.60547 128.092 5.60547 128.01C5.60547 127.929 5.65999 127.874 5.74177 127.874H14.0838C14.1656 127.874 14.2201 127.929 14.2201 128.01C14.2201 128.092 14.1656 128.147 14.0838 128.147Z" fill="#3913B8"/>
<path d="M13.1021 136.707H8.00421C7.70433 136.707 7.45898 136.461 7.45898 136.162V131.064C7.45898 130.764 7.70433 130.518 8.00421 130.518H13.1021C13.402 130.518 13.6474 130.764 13.6474 131.064V136.162C13.6474 136.461 13.402 136.707 13.1021 136.707Z" fill="#F2F2F2"/>
<path d="M46.4422 16.1558H28.5312V17.6279H46.4422V16.1558Z" fill="#A8BBDE"/>
<path d="M46.4422 18.6641H28.5312V20.1362H46.4422V18.6641Z" fill="#A8BBDE"/>
<path d="M186.458 122.095H149.9C149.818 122.095 149.764 122.04 149.764 121.958C149.764 121.877 149.818 121.822 149.9 121.822H186.458C186.54 121.822 186.594 121.877 186.594 121.958C186.594 122.04 186.54 122.095 186.458 122.095Z" fill="#00376E"/>
</svg>
